solid patch_3_1
 facet normal 0.0 0.0 1.0
  outer loop
   vertex 0.05 0.1 -0.05
   vertex -0.05 0.1 -0.05
   vertex -0.05 -0.1 -0.05
  endloop
 endfacet
 facet normal 0.0 0.0 1.0
  outer loop
   vertex 0.05 0.1 -0.05
   vertex -0.05 -0.1 -0.05
   vertex 0.05 -0.1 -0.05
  endloop
 endfacet
 facet normal -1.0 0.0 -0.0
  outer loop
   vertex 0.05 0.1 0.05
   vertex 0.05 0.1 -0.05
   vertex 0.05 -0.1 -0.05
  endloop
 endfacet
 facet normal -1.0 -0.0 0.0
  outer loop
   vertex 0.05 0.1 0.05
   vertex 0.05 -0.1 -0.05
   vertex 0.05 -0.1 0.05
  endloop
 endfacet
 facet normal 0.0 0.0 -1.0
  outer loop
   vertex -0.05 0.1 0.05
   vertex 0.05 0.1 0.05
   vertex 0.05 -0.1 0.05
  endloop
 endfacet
 facet normal 0.0 0.0 -1.0
  outer loop
   vertex -0.05 0.1 0.05
   vertex 0.05 -0.1 0.05
   vertex -0.05 -0.1 0.05
  endloop
 endfacet
 facet normal 1.0 0.0 -0.0
  outer loop
   vertex -0.05 0.1 -0.05
   vertex -0.05 0.1 0.05
   vertex -0.05 -0.1 0.05
  endloop
 endfacet
 facet normal 1.0 0.0 0.0
  outer loop
   vertex -0.05 0.1 -0.05
   vertex -0.05 -0.1 0.05
   vertex -0.05 -0.1 -0.05
  endloop
 endfacet
endsolid patch_3_1
