solid patch_2_0
 facet normal 0.0 0.0 1.0
  outer loop
   vertex 20.0 0.1 2.0
   vertex -5.0 0.1 2.0
   vertex -5.0 -0.1 2.0
  endloop
 endfacet
 facet normal 0.0 0.0 1.0
  outer loop
   vertex 20.0 0.1 2.0
   vertex -5.0 -0.1 2.0
   vertex 20.0 -0.1 2.0
  endloop
 endfacet
 facet normal 0.0 0.0 -1.0
  outer loop
   vertex -5.0 0.1 -2.0
   vertex 20.0 0.1 -2.0
   vertex -5.0 -0.1 -2.0
  endloop
 endfacet
 facet normal 0.0 0.0 -1.0
  outer loop
   vertex -5.0 -0.1 -2.0
   vertex 20.0 0.1 -2.0
   vertex 20.0 -0.1 -2.0
  endloop
 endfacet
endsolid patch_2_0
