solid MeshRefinement001
 facet normal -0.0 0.18738093972206116 0.9822872877120972
  outer loop
   vertex -0.1095250015258789 0.001985278367996216 0.01571509647369385
   vertex 0.1104749984741211 0.001985278367996216 0.01571509647369385
   vertex 0.1104749984741211 0.003939247846603394 0.015342357635498047
  endloop
 endfacet
 facet normal -0.0 0.06279079616069794 0.9980267286300659
  outer loop
   vertex -0.1095250015258789 0.001985278367996216 0.01571509647369385
   vertex 0.1104749984741211 0.0 0.01584000015258789
   vertex 0.1104749984741211 0.001985278367996216 0.01571509647369385
  endloop
 endfacet
 facet normal 0.0 0.06279079616069794 0.9980267286300659
  outer loop
   vertex -0.1095250015258789 0.001985278367996216 0.01571509647369385
   vertex -0.1095250015258789 0.0 0.01584000015258789
   vertex 0.1104749984741211 0.0 0.01584000015258789
  endloop
 endfacet
 facet normal -0.0 0.18738093972206116 0.9822872877120972
  outer loop
   vertex -0.1095250015258789 0.003939247846603394 0.015342357635498047
   vertex -0.1095250015258789 0.001985278367996216 0.01571509647369385
   vertex 0.1104749984741211 0.003939247846603394 0.015342357635498047
  endloop
 endfacet
 facet normal -0.0 0.3090173006057739 0.9510563611984253
  outer loop
   vertex -0.1095250015258789 0.005831092834472656 0.014727659225463867
   vertex 0.1104749984741211 0.003939247846603394 0.015342357635498047
   vertex 0.1104749984741211 0.005831092834472656 0.014727659225463867
  endloop
 endfacet
 facet normal 0.0 0.3090173006057739 0.9510563611984253
  outer loop
   vertex -0.1095250015258789 0.005831092834472656 0.014727659225463867
   vertex -0.1095250015258789 0.003939247846603394 0.015342357635498047
   vertex 0.1104749984741211 0.003939247846603394 0.015342357635498047
  endloop
 endfacet
 facet normal -0.0 0.535827100276947 0.8443277478218079
  outer loop
   vertex -0.1095250015258789 0.0076309781074523925 0.013880698204040528
   vertex 0.1104749984741211 0.0076309781074523925 0.013880698204040528
   vertex 0.1104749984741211 0.009310518264770508 0.012814828872680664
  endloop
 endfacet
 facet normal -0.0 0.4257790148258209 0.9048272371292114
  outer loop
   vertex -0.1095250015258789 0.0076309781074523925 0.013880698204040528
   vertex 0.1104749984741211 0.005831092834472656 0.014727659225463867
   vertex 0.1104749984741211 0.0076309781074523925 0.013880698204040528
  endloop
 endfacet
 facet normal 0.0 0.4257790148258209 0.9048272371292114
  outer loop
   vertex -0.1095250015258789 0.0076309781074523925 0.013880698204040528
   vertex -0.1095250015258789 0.005831092834472656 0.014727659225463867
   vertex 0.1104749984741211 0.005831092834472656 0.014727659225463867
  endloop
 endfacet
 facet normal -0.0 0.535827100276947 0.8443277478218079
  outer loop
   vertex -0.1095250015258789 0.009310518264770508 0.012814828872680664
   vertex -0.1095250015258789 0.0076309781074523925 0.013880698204040528
   vertex 0.1104749984741211 0.009310518264770508 0.012814828872680664
  endloop
 endfacet
 facet normal -0.0 0.6374239325523376 0.7705133557319641
  outer loop
   vertex -0.1095250015258789 0.010843226432800293 0.011546862602233888
   vertex 0.1104749984741211 0.009310518264770508 0.012814828872680664
   vertex 0.1104749984741211 0.010843226432800293 0.011546862602233888
  endloop
 endfacet
 facet normal 0.0 0.6374239325523376 0.7705133557319641
  outer loop
   vertex -0.1095250015258789 0.010843226432800293 0.011546862602233888
   vertex -0.1095250015258789 0.009310518264770508 0.012814828872680664
   vertex 0.1104749984741211 0.009310518264770508 0.012814828872680664
  endloop
 endfacet
 facet normal -0.0 0.7289686799049377 0.6845470070838928
  outer loop
   vertex -0.1095250015258789 0.012204929351806641 0.010096796035766601
   vertex 0.1104749984741211 0.010843226432800293 0.011546862602233888
   vertex 0.1104749984741211 0.012204929351806641 0.010096796035766601
  endloop
 endfacet
 facet normal 0.0 0.7289686799049377 0.6845470070838928
  outer loop
   vertex -0.1095250015258789 0.012204929351806641 0.010096796035766601
   vertex -0.1095250015258789 0.010843226432800293 0.011546862602233888
   vertex 0.1104749984741211 0.010843226432800293 0.011546862602233888
  endloop
 endfacet
 facet normal -0.0 0.8763067126274109 0.48175370693206787
  outer loop
   vertex -0.1095250015258789 0.013374154090881349 0.008487496376037598
   vertex 0.1104749984741211 0.013374154090881349 0.008487496376037598
   vertex 0.1104749984741211 0.014332460403442384 0.006744343757629395
  endloop
 endfacet
 facet normal -0.0 0.8090169429779053 0.5877852439880371
  outer loop
   vertex -0.1095250015258789 0.013374154090881349 0.008487496376037598
   vertex 0.1104749984741211 0.012204929351806641 0.010096796035766601
   vertex 0.1104749984741211 0.013374154090881349 0.008487496376037598
  endloop
 endfacet
 facet normal 0.0 0.8090169429779053 0.5877852439880371
  outer loop
   vertex -0.1095250015258789 0.013374154090881349 0.008487496376037598
   vertex -0.1095250015258789 0.012204929351806641 0.010096796035766601
   vertex 0.1104749984741211 0.012204929351806641 0.010096796035766601
  endloop
 endfacet
 facet normal -0.0 0.8763067126274109 0.48175370693206787
  outer loop
   vertex -0.1095250015258789 0.014332460403442384 0.006744343757629395
   vertex -0.1095250015258789 0.013374154090881349 0.008487496376037598
   vertex 0.1104749984741211 0.014332460403442384 0.006744343757629395
  endloop
 endfacet
 facet normal -0.0 0.9685831069946289 0.24868983030319214
  outer loop
   vertex -0.1095250015258789 0.015064735412597657 0.004894829273223877
   vertex 0.1104749984741211 0.015064735412597657 0.004894829273223877
   vertex 0.1104749984741211 0.015559430122375489 0.0029681200981140137
  endloop
 endfacet
 facet normal -0.0 0.9297764301300049 0.36812472343444824
  outer loop
   vertex -0.1095250015258789 0.015064735412597657 0.004894829273223877
   vertex 0.1104749984741211 0.014332460403442384 0.006744343757629395
   vertex 0.1104749984741211 0.015064735412597657 0.004894829273223877
  endloop
 endfacet
 facet normal 0.0 0.9297764301300049 0.36812472343444824
  outer loop
   vertex -0.1095250015258789 0.015064735412597657 0.004894829273223877
   vertex -0.1095250015258789 0.014332460403442384 0.006744343757629395
   vertex 0.1104749984741211 0.014332460403442384 0.006744343757629395
  endloop
 endfacet
 facet normal -0.0 0.9685831069946289 0.24868983030319214
  outer loop
   vertex -0.1095250015258789 0.015559430122375489 0.0029681200981140137
   vertex -0.1095250015258789 0.015064735412597657 0.004894829273223877
   vertex 0.1104749984741211 0.015559430122375489 0.0029681200981140137
  endloop
 endfacet
 facet normal 0.0 0.9921147227287292 0.1253332495689392
  outer loop
   vertex -0.1095250015258789 0.015808743476867677 0.000994601845741272
   vertex -0.1095250015258789 0.015559430122375489 0.0029681200981140137
   vertex 0.1104749984741211 0.015559430122375489 0.0029681200981140137
  endloop
 endfacet
 facet normal -0.0 1.0 0.0
  outer loop
   vertex -0.1095250015258789 0.015808743476867677 0.000994601845741272
   vertex 0.1104749984741211 0.015808743476867677 0.000994601845741272
   vertex 0.1104749984741211 0.015808743476867677 -0.000994601845741272
  endloop
 endfacet
 facet normal -0.0 0.9921147227287292 0.1253332495689392
  outer loop
   vertex -0.1095250015258789 0.015808743476867677 0.000994601845741272
   vertex 0.1104749984741211 0.015559430122375489 0.0029681200981140137
   vertex 0.1104749984741211 0.015808743476867677 0.000994601845741272
  endloop
 endfacet
 facet normal 0.0 1.0 0.0
  outer loop
   vertex -0.1095250015258789 0.015808743476867677 -0.000994601845741272
   vertex -0.1095250015258789 0.015808743476867677 0.000994601845741272
   vertex 0.1104749984741211 0.015808743476867677 -0.000994601845741272
  endloop
 endfacet
 facet normal 0.0 0.9921147227287292 -0.1253332495689392
  outer loop
   vertex -0.1095250015258789 0.015559430122375489 -0.0029681200981140137
   vertex 0.1104749984741211 0.015808743476867677 -0.000994601845741272
   vertex 0.1104749984741211 0.015559430122375489 -0.0029681200981140137
  endloop
 endfacet
 facet normal 0.0 0.9921147227287292 -0.1253332495689392
  outer loop
   vertex -0.1095250015258789 0.015559430122375489 -0.0029681200981140137
   vertex -0.1095250015258789 0.015808743476867677 -0.000994601845741272
   vertex 0.1104749984741211 0.015808743476867677 -0.000994601845741272
  endloop
 endfacet
 facet normal 0.0 0.9685831069946289 -0.24868983030319214
  outer loop
   vertex -0.1095250015258789 0.015064735412597657 -0.004894829273223877
   vertex 0.1104749984741211 0.015559430122375489 -0.0029681200981140137
   vertex 0.1104749984741211 0.015064735412597657 -0.004894829273223877
  endloop
 endfacet
 facet normal 0.0 0.9685831069946289 -0.24868983030319214
  outer loop
   vertex -0.1095250015258789 0.015064735412597657 -0.004894829273223877
   vertex -0.1095250015258789 0.015559430122375489 -0.0029681200981140137
   vertex 0.1104749984741211 0.015559430122375489 -0.0029681200981140137
  endloop
 endfacet
 facet normal 0.0 0.9297764301300049 -0.36812472343444824
  outer loop
   vertex -0.1095250015258789 0.014332460403442384 -0.006744343757629395
   vertex 0.1104749984741211 0.015064735412597657 -0.004894829273223877
   vertex 0.1104749984741211 0.014332460403442384 -0.006744343757629395
  endloop
 endfacet
 facet normal 0.0 0.9297764301300049 -0.36812472343444824
  outer loop
   vertex -0.1095250015258789 0.014332460403442384 -0.006744343757629395
   vertex -0.1095250015258789 0.015064735412597657 -0.004894829273223877
   vertex 0.1104749984741211 0.015064735412597657 -0.004894829273223877
  endloop
 endfacet
 facet normal 0.0 0.8763067126274109 -0.48175370693206787
  outer loop
   vertex -0.1095250015258789 0.013374154090881349 -0.008487496376037598
   vertex 0.1104749984741211 0.014332460403442384 -0.006744343757629395
   vertex 0.1104749984741211 0.013374154090881349 -0.008487496376037598
  endloop
 endfacet
 facet normal 0.0 0.8763067126274109 -0.48175370693206787
  outer loop
   vertex -0.1095250015258789 0.013374154090881349 -0.008487496376037598
   vertex -0.1095250015258789 0.014332460403442384 -0.006744343757629395
   vertex 0.1104749984741211 0.014332460403442384 -0.006744343757629395
  endloop
 endfacet
 facet normal 0.0 0.7289686799049377 -0.6845470070838928
  outer loop
   vertex -0.1095250015258789 0.012204929351806641 -0.010096796035766601
   vertex 0.1104749984741211 0.012204929351806641 -0.010096796035766601
   vertex 0.1104749984741211 0.010843226432800293 -0.011546862602233888
  endloop
 endfacet
 facet normal 0.0 0.8090169429779053 -0.5877852439880371
  outer loop
   vertex -0.1095250015258789 0.012204929351806641 -0.010096796035766601
   vertex 0.1104749984741211 0.013374154090881349 -0.008487496376037598
   vertex 0.1104749984741211 0.012204929351806641 -0.010096796035766601
  endloop
 endfacet
 facet normal 0.0 0.8090169429779053 -0.5877852439880371
  outer loop
   vertex -0.1095250015258789 0.012204929351806641 -0.010096796035766601
   vertex -0.1095250015258789 0.013374154090881349 -0.008487496376037598
   vertex 0.1104749984741211 0.013374154090881349 -0.008487496376037598
  endloop
 endfacet
 facet normal 0.0 0.7289686799049377 -0.6845470070838928
  outer loop
   vertex -0.1095250015258789 0.010843226432800293 -0.011546862602233888
   vertex -0.1095250015258789 0.012204929351806641 -0.010096796035766601
   vertex 0.1104749984741211 0.010843226432800293 -0.011546862602233888
  endloop
 endfacet
 facet normal 0.0 0.6374239325523376 -0.7705133557319641
  outer loop
   vertex -0.1095250015258789 0.009310518264770508 -0.012814828872680664
   vertex 0.1104749984741211 0.010843226432800293 -0.011546862602233888
   vertex 0.1104749984741211 0.009310518264770508 -0.012814828872680664
  endloop
 endfacet
 facet normal 0.0 0.6374239325523376 -0.7705133557319641
  outer loop
   vertex -0.1095250015258789 0.009310518264770508 -0.012814828872680664
   vertex -0.1095250015258789 0.010843226432800293 -0.011546862602233888
   vertex 0.1104749984741211 0.010843226432800293 -0.011546862602233888
  endloop
 endfacet
 facet normal 0.0 0.535827100276947 -0.8443277478218079
  outer loop
   vertex -0.1095250015258789 0.0076309781074523925 -0.013880698204040528
   vertex 0.1104749984741211 0.009310518264770508 -0.012814828872680664
   vertex 0.1104749984741211 0.0076309781074523925 -0.013880698204040528
  endloop
 endfacet
 facet normal 0.0 0.535827100276947 -0.8443277478218079
  outer loop
   vertex -0.1095250015258789 0.0076309781074523925 -0.013880698204040528
   vertex -0.1095250015258789 0.009310518264770508 -0.012814828872680664
   vertex 0.1104749984741211 0.009310518264770508 -0.012814828872680664
  endloop
 endfacet
 facet normal 0.0 0.3090173006057739 -0.9510563611984253
  outer loop
   vertex -0.1095250015258789 0.005831092834472656 -0.014727659225463867
   vertex 0.1104749984741211 0.005831092834472656 -0.014727659225463867
   vertex 0.1104749984741211 0.003939247846603394 -0.015342357635498047
  endloop
 endfacet
 facet normal 0.0 0.4257790148258209 -0.9048272371292114
  outer loop
   vertex -0.1095250015258789 0.005831092834472656 -0.014727659225463867
   vertex 0.1104749984741211 0.0076309781074523925 -0.013880698204040528
   vertex 0.1104749984741211 0.005831092834472656 -0.014727659225463867
  endloop
 endfacet
 facet normal 0.0 0.4257790148258209 -0.9048272371292114
  outer loop
   vertex -0.1095250015258789 0.005831092834472656 -0.014727659225463867
   vertex -0.1095250015258789 0.0076309781074523925 -0.013880698204040528
   vertex 0.1104749984741211 0.0076309781074523925 -0.013880698204040528
  endloop
 endfacet
 facet normal 0.0 0.18738093972206116 -0.9822872877120972
  outer loop
   vertex -0.1095250015258789 0.003939247846603394 -0.015342357635498047
   vertex 0.1104749984741211 0.003939247846603394 -0.015342357635498047
   vertex 0.1104749984741211 0.001985278367996216 -0.01571509647369385
  endloop
 endfacet
 facet normal 0.0 0.3090173006057739 -0.9510563611984253
  outer loop
   vertex -0.1095250015258789 0.003939247846603394 -0.015342357635498047
   vertex -0.1095250015258789 0.005831092834472656 -0.014727659225463867
   vertex 0.1104749984741211 0.003939247846603394 -0.015342357635498047
  endloop
 endfacet
 facet normal 0.0 0.18738093972206116 -0.9822872877120972
  outer loop
   vertex -0.1095250015258789 0.001985278367996216 -0.01571509647369385
   vertex -0.1095250015258789 0.003939247846603394 -0.015342357635498047
   vertex 0.1104749984741211 0.001985278367996216 -0.01571509647369385
  endloop
 endfacet
 facet normal 0.0 0.06279079616069794 -0.9980267286300659
  outer loop
   vertex -0.1095250015258789 2.0000000072549875e-18 -0.01584000015258789
   vertex 0.1104749984741211 0.001985278367996216 -0.01571509647369385
   vertex 0.1104749984741211 2.0000000072549875e-18 -0.01584000015258789
  endloop
 endfacet
 facet normal 0.0 0.06279079616069794 -0.9980267286300659
  outer loop
   vertex -0.1095250015258789 2.0000000072549875e-18 -0.01584000015258789
   vertex -0.1095250015258789 0.001985278367996216 -0.01571509647369385
   vertex 0.1104749984741211 0.001985278367996216 -0.01571509647369385
  endloop
 endfacet
 facet normal 0.0 -0.06279079616069794 -0.9980267286300659
  outer loop
   vertex -0.1095250015258789 -0.001985278367996216 -0.01571509647369385
   vertex -0.1095250015258789 2.0000000072549875e-18 -0.01584000015258789
   vertex 0.1104749984741211 2.0000000072549875e-18 -0.01584000015258789
  endloop
 endfacet
 facet normal 0.0 -0.18738093972206116 -0.9822872877120972
  outer loop
   vertex -0.1095250015258789 -0.001985278367996216 -0.01571509647369385
   vertex 0.1104749984741211 -0.001985278367996216 -0.01571509647369385
   vertex 0.1104749984741211 -0.003939247846603394 -0.015342357635498047
  endloop
 endfacet
 facet normal 0.0 -0.06279079616069794 -0.9980267286300659
  outer loop
   vertex -0.1095250015258789 -0.001985278367996216 -0.01571509647369385
   vertex 0.1104749984741211 2.0000000072549875e-18 -0.01584000015258789
   vertex 0.1104749984741211 -0.001985278367996216 -0.01571509647369385
  endloop
 endfacet
 facet normal 0.0 -0.3090173006057739 -0.9510563611984253
  outer loop
   vertex -0.1095250015258789 -0.003939247846603394 -0.015342357635498047
   vertex 0.1104749984741211 -0.003939247846603394 -0.015342357635498047
   vertex 0.1104749984741211 -0.005831092834472656 -0.014727659225463867
  endloop
 endfacet
 facet normal 0.0 -0.18738093972206116 -0.9822872877120972
  outer loop
   vertex -0.1095250015258789 -0.003939247846603394 -0.015342357635498047
   vertex -0.1095250015258789 -0.001985278367996216 -0.01571509647369385
   vertex 0.1104749984741211 -0.003939247846603394 -0.015342357635498047
  endloop
 endfacet
 facet normal 0.0 -0.3090173006057739 -0.9510563611984253
  outer loop
   vertex -0.1095250015258789 -0.005831092834472656 -0.014727659225463867
   vertex -0.1095250015258789 -0.003939247846603394 -0.015342357635498047
   vertex 0.1104749984741211 -0.005831092834472656 -0.014727659225463867
  endloop
 endfacet
 facet normal 0.0 -0.4257790148258209 -0.9048272371292114
  outer loop
   vertex -0.1095250015258789 -0.0076309781074523925 -0.013880698204040528
   vertex 0.1104749984741211 -0.005831092834472656 -0.014727659225463867
   vertex 0.1104749984741211 -0.0076309781074523925 -0.013880698204040528
  endloop
 endfacet
 facet normal 0.0 -0.4257790148258209 -0.9048272371292114
  outer loop
   vertex -0.1095250015258789 -0.0076309781074523925 -0.013880698204040528
   vertex -0.1095250015258789 -0.005831092834472656 -0.014727659225463867
   vertex 0.1104749984741211 -0.005831092834472656 -0.014727659225463867
  endloop
 endfacet
 facet normal 0.0 -0.535827100276947 -0.8443277478218079
  outer loop
   vertex -0.1095250015258789 -0.009310518264770508 -0.012814828872680664
   vertex 0.1104749984741211 -0.0076309781074523925 -0.013880698204040528
   vertex 0.1104749984741211 -0.009310518264770508 -0.012814828872680664
  endloop
 endfacet
 facet normal 0.0 -0.535827100276947 -0.8443277478218079
  outer loop
   vertex -0.1095250015258789 -0.009310518264770508 -0.012814828872680664
   vertex -0.1095250015258789 -0.0076309781074523925 -0.013880698204040528
   vertex 0.1104749984741211 -0.0076309781074523925 -0.013880698204040528
  endloop
 endfacet
 facet normal 0.0 -0.7289686799049377 -0.6845470070838928
  outer loop
   vertex -0.1095250015258789 -0.010843226432800293 -0.011546862602233888
   vertex 0.1104749984741211 -0.010843226432800293 -0.011546862602233888
   vertex 0.1104749984741211 -0.012204929351806641 -0.010096796035766601
  endloop
 endfacet
 facet normal 0.0 -0.6374239325523376 -0.7705133557319641
  outer loop
   vertex -0.1095250015258789 -0.010843226432800293 -0.011546862602233888
   vertex 0.1104749984741211 -0.009310518264770508 -0.012814828872680664
   vertex 0.1104749984741211 -0.010843226432800293 -0.011546862602233888
  endloop
 endfacet
 facet normal 0.0 -0.6374239325523376 -0.7705133557319641
  outer loop
   vertex -0.1095250015258789 -0.010843226432800293 -0.011546862602233888
   vertex -0.1095250015258789 -0.009310518264770508 -0.012814828872680664
   vertex 0.1104749984741211 -0.009310518264770508 -0.012814828872680664
  endloop
 endfacet
 facet normal 0.0 -0.7289686799049377 -0.6845470070838928
  outer loop
   vertex -0.1095250015258789 -0.012204929351806641 -0.010096796035766601
   vertex -0.1095250015258789 -0.010843226432800293 -0.011546862602233888
   vertex 0.1104749984741211 -0.012204929351806641 -0.010096796035766601
  endloop
 endfacet
 facet normal 0.0 -0.8090169429779053 -0.5877852439880371
  outer loop
   vertex -0.1095250015258789 -0.013374154090881349 -0.008487496376037598
   vertex 0.1104749984741211 -0.012204929351806641 -0.010096796035766601
   vertex 0.1104749984741211 -0.013374154090881349 -0.008487496376037598
  endloop
 endfacet
 facet normal 0.0 -0.8090169429779053 -0.5877852439880371
  outer loop
   vertex -0.1095250015258789 -0.013374154090881349 -0.008487496376037598
   vertex -0.1095250015258789 -0.012204929351806641 -0.010096796035766601
   vertex 0.1104749984741211 -0.012204929351806641 -0.010096796035766601
  endloop
 endfacet
 facet normal 0.0 -0.8763067126274109 -0.48175370693206787
  outer loop
   vertex -0.1095250015258789 -0.014332460403442384 -0.006744343757629395
   vertex 0.1104749984741211 -0.013374154090881349 -0.008487496376037598
   vertex 0.1104749984741211 -0.014332460403442384 -0.006744343757629395
  endloop
 endfacet
 facet normal 0.0 -0.8763067126274109 -0.48175370693206787
  outer loop
   vertex -0.1095250015258789 -0.014332460403442384 -0.006744343757629395
   vertex -0.1095250015258789 -0.013374154090881349 -0.008487496376037598
   vertex 0.1104749984741211 -0.013374154090881349 -0.008487496376037598
  endloop
 endfacet
 facet normal 0.0 -0.9297764301300049 -0.36812472343444824
  outer loop
   vertex -0.1095250015258789 -0.015064735412597657 -0.004894829273223877
   vertex 0.1104749984741211 -0.014332460403442384 -0.006744343757629395
   vertex 0.1104749984741211 -0.015064735412597657 -0.004894829273223877
  endloop
 endfacet
 facet normal 0.0 -0.9297764301300049 -0.36812472343444824
  outer loop
   vertex -0.1095250015258789 -0.015064735412597657 -0.004894829273223877
   vertex -0.1095250015258789 -0.014332460403442384 -0.006744343757629395
   vertex 0.1104749984741211 -0.014332460403442384 -0.006744343757629395
  endloop
 endfacet
 facet normal 0.0 -0.9685831069946289 -0.24868983030319214
  outer loop
   vertex -0.1095250015258789 -0.015559430122375489 -0.0029681200981140137
   vertex 0.1104749984741211 -0.015064735412597657 -0.004894829273223877
   vertex 0.1104749984741211 -0.015559430122375489 -0.0029681200981140137
  endloop
 endfacet
 facet normal 0.0 -0.9685831069946289 -0.24868983030319214
  outer loop
   vertex -0.1095250015258789 -0.015559430122375489 -0.0029681200981140137
   vertex -0.1095250015258789 -0.015064735412597657 -0.004894829273223877
   vertex 0.1104749984741211 -0.015064735412597657 -0.004894829273223877
  endloop
 endfacet
 facet normal 0.0 -0.9921147227287292 -0.1253332495689392
  outer loop
   vertex -0.1095250015258789 -0.015808743476867677 -0.000994601845741272
   vertex -0.1095250015258789 -0.015559430122375489 -0.0029681200981140137
   vertex 0.1104749984741211 -0.015559430122375489 -0.0029681200981140137
  endloop
 endfacet
 facet normal 0.0 -0.9921147227287292 -0.1253332495689392
  outer loop
   vertex -0.1095250015258789 -0.015808743476867677 -0.000994601845741272
   vertex 0.1104749984741211 -0.015559430122375489 -0.0029681200981140137
   vertex 0.1104749984741211 -0.015808743476867677 -0.000994601845741272
  endloop
 endfacet
 facet normal 0.0 -1.0 0.0
  outer loop
   vertex -0.1095250015258789 -0.015808743476867677 0.000994601845741272
   vertex -0.1095250015258789 -0.015808743476867677 -0.000994601845741272
   vertex 0.1104749984741211 -0.015808743476867677 -0.000994601845741272
  endloop
 endfacet
 facet normal 0.0 -1.0 0.0
  outer loop
   vertex -0.1095250015258789 -0.015808743476867677 0.000994601845741272
   vertex 0.1104749984741211 -0.015808743476867677 -0.000994601845741272
   vertex 0.1104749984741211 -0.015808743476867677 0.000994601845741272
  endloop
 endfacet
 facet normal 0.0 -0.9921147227287292 0.1253332495689392
  outer loop
   vertex -0.1095250015258789 -0.015559430122375489 0.0029681200981140137
   vertex 0.1104749984741211 -0.015808743476867677 0.000994601845741272
   vertex 0.1104749984741211 -0.015559430122375489 0.0029681200981140137
  endloop
 endfacet
 facet normal 0.0 -0.9921147227287292 0.1253332495689392
  outer loop
   vertex -0.1095250015258789 -0.015559430122375489 0.0029681200981140137
   vertex -0.1095250015258789 -0.015808743476867677 0.000994601845741272
   vertex 0.1104749984741211 -0.015808743476867677 0.000994601845741272
  endloop
 endfacet
 facet normal 0.0 -0.9685831069946289 0.24868983030319214
  outer loop
   vertex -0.1095250015258789 -0.015064735412597657 0.004894829273223877
   vertex -0.1095250015258789 -0.015559430122375489 0.0029681200981140137
   vertex 0.1104749984741211 -0.015559430122375489 0.0029681200981140137
  endloop
 endfacet
 facet normal 0.0 -0.9685831069946289 0.24868983030319214
  outer loop
   vertex -0.1095250015258789 -0.015064735412597657 0.004894829273223877
   vertex 0.1104749984741211 -0.015559430122375489 0.0029681200981140137
   vertex 0.1104749984741211 -0.015064735412597657 0.004894829273223877
  endloop
 endfacet
 facet normal 0.0 -0.9297764301300049 0.36812472343444824
  outer loop
   vertex -0.1095250015258789 -0.014332460403442384 0.006744343757629395
   vertex 0.1104749984741211 -0.015064735412597657 0.004894829273223877
   vertex 0.1104749984741211 -0.014332460403442384 0.006744343757629395
  endloop
 endfacet
 facet normal 0.0 -0.9297764301300049 0.36812472343444824
  outer loop
   vertex -0.1095250015258789 -0.014332460403442384 0.006744343757629395
   vertex -0.1095250015258789 -0.015064735412597657 0.004894829273223877
   vertex 0.1104749984741211 -0.015064735412597657 0.004894829273223877
  endloop
 endfacet
 facet normal 0.0 -0.8763067126274109 0.48175370693206787
  outer loop
   vertex -0.1095250015258789 -0.013374154090881349 0.008487496376037598
   vertex 0.1104749984741211 -0.014332460403442384 0.006744343757629395
   vertex 0.1104749984741211 -0.013374154090881349 0.008487496376037598
  endloop
 endfacet
 facet normal 0.0 -0.8763067126274109 0.48175370693206787
  outer loop
   vertex -0.1095250015258789 -0.013374154090881349 0.008487496376037598
   vertex -0.1095250015258789 -0.014332460403442384 0.006744343757629395
   vertex 0.1104749984741211 -0.014332460403442384 0.006744343757629395
  endloop
 endfacet
 facet normal 0.0 -0.7289686799049377 0.6845470070838928
  outer loop
   vertex -0.1095250015258789 -0.012204929351806641 0.010096796035766601
   vertex 0.1104749984741211 -0.012204929351806641 0.010096796035766601
   vertex 0.1104749984741211 -0.010843226432800293 0.011546862602233888
  endloop
 endfacet
 facet normal 0.0 -0.8090169429779053 0.5877852439880371
  outer loop
   vertex -0.1095250015258789 -0.012204929351806641 0.010096796035766601
   vertex 0.1104749984741211 -0.013374154090881349 0.008487496376037598
   vertex 0.1104749984741211 -0.012204929351806641 0.010096796035766601
  endloop
 endfacet
 facet normal 0.0 -0.8090169429779053 0.5877852439880371
  outer loop
   vertex -0.1095250015258789 -0.012204929351806641 0.010096796035766601
   vertex -0.1095250015258789 -0.013374154090881349 0.008487496376037598
   vertex 0.1104749984741211 -0.013374154090881349 0.008487496376037598
  endloop
 endfacet
 facet normal 0.0 -0.7289686799049377 0.6845470070838928
  outer loop
   vertex -0.1095250015258789 -0.010843226432800293 0.011546862602233888
   vertex -0.1095250015258789 -0.012204929351806641 0.010096796035766601
   vertex 0.1104749984741211 -0.010843226432800293 0.011546862602233888
  endloop
 endfacet
 facet normal 0.0 -0.535827100276947 0.8443277478218079
  outer loop
   vertex -0.1095250015258789 -0.009310518264770508 0.012814828872680664
   vertex 0.1104749984741211 -0.009310518264770508 0.012814828872680664
   vertex 0.1104749984741211 -0.0076309781074523925 0.013880698204040528
  endloop
 endfacet
 facet normal 0.0 -0.6374239325523376 0.7705133557319641
  outer loop
   vertex -0.1095250015258789 -0.009310518264770508 0.012814828872680664
   vertex 0.1104749984741211 -0.010843226432800293 0.011546862602233888
   vertex 0.1104749984741211 -0.009310518264770508 0.012814828872680664
  endloop
 endfacet
 facet normal 0.0 -0.6374239325523376 0.7705133557319641
  outer loop
   vertex -0.1095250015258789 -0.009310518264770508 0.012814828872680664
   vertex -0.1095250015258789 -0.010843226432800293 0.011546862602233888
   vertex 0.1104749984741211 -0.010843226432800293 0.011546862602233888
  endloop
 endfacet
 facet normal 0.0 -0.535827100276947 0.8443277478218079
  outer loop
   vertex -0.1095250015258789 -0.0076309781074523925 0.013880698204040528
   vertex -0.1095250015258789 -0.009310518264770508 0.012814828872680664
   vertex 0.1104749984741211 -0.0076309781074523925 0.013880698204040528
  endloop
 endfacet
 facet normal 0.0 -0.4257790148258209 0.9048272371292114
  outer loop
   vertex -0.1095250015258789 -0.005831092834472656 0.014727659225463867
   vertex 0.1104749984741211 -0.0076309781074523925 0.013880698204040528
   vertex 0.1104749984741211 -0.005831092834472656 0.014727659225463867
  endloop
 endfacet
 facet normal 0.0 -0.4257790148258209 0.9048272371292114
  outer loop
   vertex -0.1095250015258789 -0.005831092834472656 0.014727659225463867
   vertex -0.1095250015258789 -0.0076309781074523925 0.013880698204040528
   vertex 0.1104749984741211 -0.0076309781074523925 0.013880698204040528
  endloop
 endfacet
 facet normal 0.0 -0.18738093972206116 0.9822872877120972
  outer loop
   vertex -0.1095250015258789 -0.003939247846603394 0.015342357635498047
   vertex 0.1104749984741211 -0.003939247846603394 0.015342357635498047
   vertex 0.1104749984741211 -0.001985278367996216 0.01571509647369385
  endloop
 endfacet
 facet normal 0.0 -0.3090173006057739 0.9510563611984253
  outer loop
   vertex -0.1095250015258789 -0.003939247846603394 0.015342357635498047
   vertex 0.1104749984741211 -0.005831092834472656 0.014727659225463867
   vertex 0.1104749984741211 -0.003939247846603394 0.015342357635498047
  endloop
 endfacet
 facet normal 0.0 -0.3090173006057739 0.9510563611984253
  outer loop
   vertex -0.1095250015258789 -0.003939247846603394 0.015342357635498047
   vertex -0.1095250015258789 -0.005831092834472656 0.014727659225463867
   vertex 0.1104749984741211 -0.005831092834472656 0.014727659225463867
  endloop
 endfacet
 facet normal 0.0 -0.18738093972206116 0.9822872877120972
  outer loop
   vertex -0.1095250015258789 -0.001985278367996216 0.01571509647369385
   vertex -0.1095250015258789 -0.003939247846603394 0.015342357635498047
   vertex 0.1104749984741211 -0.001985278367996216 0.01571509647369385
  endloop
 endfacet
 facet normal 0.0 -0.06279079616069794 0.9980267286300659
  outer loop
   vertex -0.1095250015258789 0.0 0.01584000015258789
   vertex 0.1104749984741211 -0.001985278367996216 0.01571509647369385
   vertex 0.1104749984741211 0.0 0.01584000015258789
  endloop
 endfacet
 facet normal 0.0 -0.06279079616069794 0.9980267286300659
  outer loop
   vertex -0.1095250015258789 0.0 0.01584000015258789
   vertex -0.1095250015258789 -0.001985278367996216 0.01571509647369385
   vertex 0.1104749984741211 -0.001985278367996216 0.01571509647369385
  endloop
 endfacet
 facet normal 1.0 0.0 0.0
  outer loop
   vertex 0.1104749984741211 -0.013374154090881349 0.008487496376037598
   vertex 0.1104749984741211 -0.010843226432800293 0.011546862602233888
   vertex 0.1104749984741211 -0.012204929351806641 0.010096796035766601
  endloop
 endfacet
 facet normal 1.0 0.0 0.0
  outer loop
   vertex 0.1104749984741211 -0.005831092834472656 0.014727659225463867
   vertex 0.1104749984741211 -0.0076309781074523925 0.013880698204040528
   vertex 0.1104749984741211 -0.009310518264770508 0.012814828872680664
  endloop
 endfacet
 facet normal 1.0 0.0 0.0
  outer loop
   vertex 0.1104749984741211 -0.005831092834472656 0.014727659225463867
   vertex 0.1104749984741211 -0.009310518264770508 0.012814828872680664
   vertex 0.1104749984741211 -0.010843226432800293 0.011546862602233888
  endloop
 endfacet
 facet normal 1.0 0.0 0.0
  outer loop
   vertex 0.1104749984741211 -0.015559430122375489 0.0029681200981140137
   vertex 0.1104749984741211 -0.013374154090881349 0.008487496376037598
   vertex 0.1104749984741211 -0.014332460403442384 0.006744343757629395
  endloop
 endfacet
 facet normal 1.0 0.0 0.0
  outer loop
   vertex 0.1104749984741211 -0.015559430122375489 0.0029681200981140137
   vertex 0.1104749984741211 -0.014332460403442384 0.006744343757629395
   vertex 0.1104749984741211 -0.015064735412597657 0.004894829273223877
  endloop
 endfacet
 facet normal 1.0 0.0 0.0
  outer loop
   vertex 0.1104749984741211 -0.001985278367996216 0.01571509647369385
   vertex 0.1104749984741211 -0.003939247846603394 0.015342357635498047
   vertex 0.1104749984741211 -0.005831092834472656 0.014727659225463867
  endloop
 endfacet
 facet normal 1.0 0.0 0.0
  outer loop
   vertex 0.1104749984741211 -0.015808743476867677 0.000994601845741272
   vertex 0.1104749984741211 -0.013374154090881349 0.008487496376037598
   vertex 0.1104749984741211 -0.015559430122375489 0.0029681200981140137
  endloop
 endfacet
 facet normal 1.0 0.0 0.0
  outer loop
   vertex 0.1104749984741211 0.0 0.01584000015258789
   vertex 0.1104749984741211 -0.001985278367996216 0.01571509647369385
   vertex 0.1104749984741211 -0.005831092834472656 0.014727659225463867
  endloop
 endfacet
 facet normal 1.0 0.0 0.0
  outer loop
   vertex 0.1104749984741211 -0.015559430122375489 -0.0029681200981140137
   vertex 0.1104749984741211 -0.015808743476867677 0.000994601845741272
   vertex 0.1104749984741211 -0.015808743476867677 -0.000994601845741272
  endloop
 endfacet
 facet normal 1.0 0.0 0.0
  outer loop
   vertex 0.1104749984741211 0.003939247846603394 0.015342357635498047
   vertex 0.1104749984741211 0.001985278367996216 0.01571509647369385
   vertex 0.1104749984741211 0.0 0.01584000015258789
  endloop
 endfacet
 facet normal 1.0 0.0 0.0
  outer loop
   vertex 0.1104749984741211 0.003939247846603394 0.015342357635498047
   vertex 0.1104749984741211 0.0 0.01584000015258789
   vertex 0.1104749984741211 -0.005831092834472656 0.014727659225463867
  endloop
 endfacet
 facet normal 1.0 0.0 0.0
  outer loop
   vertex 0.1104749984741211 0.0076309781074523925 0.013880698204040528
   vertex 0.1104749984741211 0.005831092834472656 0.014727659225463867
   vertex 0.1104749984741211 0.003939247846603394 0.015342357635498047
  endloop
 endfacet
 facet normal 1.0 0.0 0.0
  outer loop
   vertex 0.1104749984741211 0.0076309781074523925 0.013880698204040528
   vertex 0.1104749984741211 0.003939247846603394 0.015342357635498047
   vertex 0.1104749984741211 -0.005831092834472656 0.014727659225463867
  endloop
 endfacet
 facet normal 1.0 0.0 0.0
  outer loop
   vertex 0.1104749984741211 -0.013374154090881349 -0.008487496376037598
   vertex 0.1104749984741211 -0.015559430122375489 -0.0029681200981140137
   vertex 0.1104749984741211 -0.015064735412597657 -0.004894829273223877
  endloop
 endfacet
 facet normal 1.0 0.0 0.0
  outer loop
   vertex 0.1104749984741211 -0.013374154090881349 -0.008487496376037598
   vertex 0.1104749984741211 -0.015064735412597657 -0.004894829273223877
   vertex 0.1104749984741211 -0.014332460403442384 -0.006744343757629395
  endloop
 endfacet
 facet normal 1.0 0.0 0.0
  outer loop
   vertex 0.1104749984741211 -0.013374154090881349 -0.008487496376037598
   vertex 0.1104749984741211 -0.015808743476867677 0.000994601845741272
   vertex 0.1104749984741211 -0.015559430122375489 -0.0029681200981140137
  endloop
 endfacet
 facet normal 1.0 0.0 -0.0
  outer loop
   vertex 0.1104749984741211 -0.013374154090881349 -0.008487496376037598
   vertex 0.1104749984741211 -0.013374154090881349 0.008487496376037598
   vertex 0.1104749984741211 -0.015808743476867677 0.000994601845741272
  endloop
 endfacet
 facet normal 1.0 0.0 0.0
  outer loop
   vertex 0.1104749984741211 0.010843226432800293 0.011546862602233888
   vertex 0.1104749984741211 0.009310518264770508 0.012814828872680664
   vertex 0.1104749984741211 0.0076309781074523925 0.013880698204040528
  endloop
 endfacet
 facet normal 1.0 0.0 0.0
  outer loop
   vertex 0.1104749984741211 -0.009310518264770508 -0.012814828872680664
   vertex 0.1104749984741211 -0.012204929351806641 -0.010096796035766601
   vertex 0.1104749984741211 -0.010843226432800293 -0.011546862602233888
  endloop
 endfacet
 facet normal 1.0 0.0 0.0
  outer loop
   vertex 0.1104749984741211 0.013374154090881349 0.008487496376037598
   vertex 0.1104749984741211 0.012204929351806641 0.010096796035766601
   vertex 0.1104749984741211 0.010843226432800293 0.011546862602233888
  endloop
 endfacet
 facet normal 1.0 0.0 0.0
  outer loop
   vertex 0.1104749984741211 0.013374154090881349 0.008487496376037598
   vertex 0.1104749984741211 -0.010843226432800293 0.011546862602233888
   vertex 0.1104749984741211 -0.013374154090881349 0.008487496376037598
  endloop
 endfacet
 facet normal 1.0 0.0 0.0
  outer loop
   vertex 0.1104749984741211 0.013374154090881349 0.008487496376037598
   vertex 0.1104749984741211 -0.005831092834472656 0.014727659225463867
   vertex 0.1104749984741211 -0.010843226432800293 0.011546862602233888
  endloop
 endfacet
 facet normal 1.0 0.0 0.0
  outer loop
   vertex 0.1104749984741211 0.013374154090881349 0.008487496376037598
   vertex 0.1104749984741211 0.0076309781074523925 0.013880698204040528
   vertex 0.1104749984741211 -0.005831092834472656 0.014727659225463867
  endloop
 endfacet
 facet normal 1.0 0.0 0.0
  outer loop
   vertex 0.1104749984741211 0.013374154090881349 0.008487496376037598
   vertex 0.1104749984741211 0.010843226432800293 0.011546862602233888
   vertex 0.1104749984741211 0.0076309781074523925 0.013880698204040528
  endloop
 endfacet
 facet normal 1.0 0.0 0.0
  outer loop
   vertex 0.1104749984741211 -0.0076309781074523925 -0.013880698204040528
   vertex 0.1104749984741211 -0.012204929351806641 -0.010096796035766601
   vertex 0.1104749984741211 -0.009310518264770508 -0.012814828872680664
  endloop
 endfacet
 facet normal 1.0 0.0 0.0
  outer loop
   vertex 0.1104749984741211 -0.0076309781074523925 -0.013880698204040528
   vertex 0.1104749984741211 -0.013374154090881349 -0.008487496376037598
   vertex 0.1104749984741211 -0.012204929351806641 -0.010096796035766601
  endloop
 endfacet
 facet normal 1.0 0.0 0.0
  outer loop
   vertex 0.1104749984741211 0.014332460403442384 0.006744343757629395
   vertex 0.1104749984741211 0.013374154090881349 0.008487496376037598
   vertex 0.1104749984741211 -0.013374154090881349 0.008487496376037598
  endloop
 endfacet
 facet normal 1.0 0.0 0.0
  outer loop
   vertex 0.1104749984741211 -0.003939247846603394 -0.015342357635498047
   vertex 0.1104749984741211 -0.0076309781074523925 -0.013880698204040528
   vertex 0.1104749984741211 -0.005831092834472656 -0.014727659225463867
  endloop
 endfacet
 facet normal 1.0 0.0 0.0
  outer loop
   vertex 0.1104749984741211 0.015559430122375489 0.0029681200981140137
   vertex 0.1104749984741211 0.014332460403442384 0.006744343757629395
   vertex 0.1104749984741211 -0.013374154090881349 0.008487496376037598
  endloop
 endfacet
 facet normal 1.0 0.0 0.0
  outer loop
   vertex 0.1104749984741211 0.015559430122375489 0.0029681200981140137
   vertex 0.1104749984741211 0.015064735412597657 0.004894829273223877
   vertex 0.1104749984741211 0.014332460403442384 0.006744343757629395
  endloop
 endfacet
 facet normal 1.0 0.0 0.0
  outer loop
   vertex 0.1104749984741211 0.001985278367996216 -0.01571509647369385
   vertex 0.1104749984741211 -0.003939247846603394 -0.015342357635498047
   vertex 0.1104749984741211 -0.001985278367996216 -0.01571509647369385
  endloop
 endfacet
 facet normal 1.0 0.0 0.0
  outer loop
   vertex 0.1104749984741211 0.001985278367996216 -0.01571509647369385
   vertex 0.1104749984741211 -0.001985278367996216 -0.01571509647369385
   vertex 0.1104749984741211 2.0000000072549875e-18 -0.01584000015258789
  endloop
 endfacet
 facet normal 1.0 0.0 -0.0
  outer loop
   vertex 0.1104749984741211 0.015559430122375489 -0.0029681200981140137
   vertex 0.1104749984741211 0.015559430122375489 0.0029681200981140137
   vertex 0.1104749984741211 -0.013374154090881349 0.008487496376037598
  endloop
 endfacet
 facet normal 1.0 0.0 0.0
  outer loop
   vertex 0.1104749984741211 0.015559430122375489 -0.0029681200981140137
   vertex 0.1104749984741211 0.015808743476867677 -0.000994601845741272
   vertex 0.1104749984741211 0.015808743476867677 0.000994601845741272
  endloop
 endfacet
 facet normal 1.0 0.0 0.0
  outer loop
   vertex 0.1104749984741211 0.015559430122375489 -0.0029681200981140137
   vertex 0.1104749984741211 0.015808743476867677 0.000994601845741272
   vertex 0.1104749984741211 0.015559430122375489 0.0029681200981140137
  endloop
 endfacet
 facet normal 1.0 0.0 0.0
  outer loop
   vertex 0.1104749984741211 0.005831092834472656 -0.014727659225463867
   vertex 0.1104749984741211 -0.003939247846603394 -0.015342357635498047
   vertex 0.1104749984741211 0.001985278367996216 -0.01571509647369385
  endloop
 endfacet
 facet normal 1.0 0.0 0.0
  outer loop
   vertex 0.1104749984741211 0.005831092834472656 -0.014727659225463867
   vertex 0.1104749984741211 0.001985278367996216 -0.01571509647369385
   vertex 0.1104749984741211 0.003939247846603394 -0.015342357635498047
  endloop
 endfacet
 facet normal 1.0 0.0 -0.0
  outer loop
   vertex 0.1104749984741211 0.013374154090881349 -0.008487496376037598
   vertex 0.1104749984741211 0.015559430122375489 -0.0029681200981140137
   vertex 0.1104749984741211 -0.013374154090881349 0.008487496376037598
  endloop
 endfacet
 facet normal 1.0 0.0 0.0
  outer loop
   vertex 0.1104749984741211 0.013374154090881349 -0.008487496376037598
   vertex 0.1104749984741211 0.014332460403442384 -0.006744343757629395
   vertex 0.1104749984741211 0.015064735412597657 -0.004894829273223877
  endloop
 endfacet
 facet normal 1.0 0.0 0.0
  outer loop
   vertex 0.1104749984741211 0.013374154090881349 -0.008487496376037598
   vertex 0.1104749984741211 0.015064735412597657 -0.004894829273223877
   vertex 0.1104749984741211 0.015559430122375489 -0.0029681200981140137
  endloop
 endfacet
 facet normal 1.0 0.0 0.0
  outer loop
   vertex 0.1104749984741211 0.013374154090881349 -0.008487496376037598
   vertex 0.1104749984741211 -0.013374154090881349 0.008487496376037598
   vertex 0.1104749984741211 -0.013374154090881349 -0.008487496376037598
  endloop
 endfacet
 facet normal 1.0 0.0 0.0
  outer loop
   vertex 0.1104749984741211 0.009310518264770508 -0.012814828872680664
   vertex 0.1104749984741211 -0.013374154090881349 -0.008487496376037598
   vertex 0.1104749984741211 -0.0076309781074523925 -0.013880698204040528
  endloop
 endfacet
 facet normal 1.0 0.0 0.0
  outer loop
   vertex 0.1104749984741211 0.009310518264770508 -0.012814828872680664
   vertex 0.1104749984741211 -0.0076309781074523925 -0.013880698204040528
   vertex 0.1104749984741211 -0.003939247846603394 -0.015342357635498047
  endloop
 endfacet
 facet normal 1.0 0.0 0.0
  outer loop
   vertex 0.1104749984741211 0.009310518264770508 -0.012814828872680664
   vertex 0.1104749984741211 0.005831092834472656 -0.014727659225463867
   vertex 0.1104749984741211 0.0076309781074523925 -0.013880698204040528
  endloop
 endfacet
 facet normal 1.0 0.0 0.0
  outer loop
   vertex 0.1104749984741211 0.009310518264770508 -0.012814828872680664
   vertex 0.1104749984741211 -0.003939247846603394 -0.015342357635498047
   vertex 0.1104749984741211 0.005831092834472656 -0.014727659225463867
  endloop
 endfacet
 facet normal 1.0 0.0 -0.0
  outer loop
   vertex 0.1104749984741211 0.009310518264770508 -0.012814828872680664
   vertex 0.1104749984741211 0.013374154090881349 -0.008487496376037598
   vertex 0.1104749984741211 -0.013374154090881349 -0.008487496376037598
  endloop
 endfacet
 facet normal 1.0 0.0 0.0
  outer loop
   vertex 0.1104749984741211 0.010843226432800293 -0.011546862602233888
   vertex 0.1104749984741211 0.012204929351806641 -0.010096796035766601
   vertex 0.1104749984741211 0.013374154090881349 -0.008487496376037598
  endloop
 endfacet
 facet normal 1.0 0.0 -0.0
  outer loop
   vertex 0.1104749984741211 0.010843226432800293 -0.011546862602233888
   vertex 0.1104749984741211 0.013374154090881349 -0.008487496376037598
   vertex 0.1104749984741211 0.009310518264770508 -0.012814828872680664
  endloop
 endfacet
 facet normal -1.0 0.0 0.0
  outer loop
   vertex -0.1095250015258789 -0.010843226432800293 0.011546862602233888
   vertex -0.1095250015258789 -0.013374154090881349 0.008487496376037598
   vertex -0.1095250015258789 -0.012204929351806641 0.010096796035766601
  endloop
 endfacet
 facet normal -1.0 0.0 -0.0
  outer loop
   vertex -0.1095250015258789 -0.0076309781074523925 0.013880698204040528
   vertex -0.1095250015258789 -0.005831092834472656 0.014727659225463867
   vertex -0.1095250015258789 -0.009310518264770508 0.012814828872680664
  endloop
 endfacet
 facet normal -1.0 0.0 -0.0
  outer loop
   vertex -0.1095250015258789 -0.009310518264770508 0.012814828872680664
   vertex -0.1095250015258789 -0.005831092834472656 0.014727659225463867
   vertex -0.1095250015258789 -0.010843226432800293 0.011546862602233888
  endloop
 endfacet
 facet normal -1.0 0.0 0.0
  outer loop
   vertex -0.1095250015258789 -0.013374154090881349 0.008487496376037598
   vertex -0.1095250015258789 -0.015559430122375489 0.0029681200981140137
   vertex -0.1095250015258789 -0.014332460403442384 0.006744343757629395
  endloop
 endfacet
 facet normal -1.0 0.0 0.0
  outer loop
   vertex -0.1095250015258789 -0.014332460403442384 0.006744343757629395
   vertex -0.1095250015258789 -0.015559430122375489 0.0029681200981140137
   vertex -0.1095250015258789 -0.015064735412597657 0.004894829273223877
  endloop
 endfacet
 facet normal -1.0 0.0 -0.0
  outer loop
   vertex -0.1095250015258789 -0.003939247846603394 0.015342357635498047
   vertex -0.1095250015258789 -0.001985278367996216 0.01571509647369385
   vertex -0.1095250015258789 -0.005831092834472656 0.014727659225463867
  endloop
 endfacet
 facet normal -1.0 0.0 0.0
  outer loop
   vertex -0.1095250015258789 -0.013374154090881349 0.008487496376037598
   vertex -0.1095250015258789 -0.015808743476867677 0.000994601845741272
   vertex -0.1095250015258789 -0.015559430122375489 0.0029681200981140137
  endloop
 endfacet
 facet normal -1.0 0.0 -0.0
  outer loop
   vertex -0.1095250015258789 -0.001985278367996216 0.01571509647369385
   vertex -0.1095250015258789 0.0 0.01584000015258789
   vertex -0.1095250015258789 -0.005831092834472656 0.014727659225463867
  endloop
 endfacet
 facet normal -1.0 0.0 0.0
  outer loop
   vertex -0.1095250015258789 -0.015808743476867677 0.000994601845741272
   vertex -0.1095250015258789 -0.015559430122375489 -0.0029681200981140137
   vertex -0.1095250015258789 -0.015808743476867677 -0.000994601845741272
  endloop
 endfacet
 facet normal -1.0 -0.0 -0.0
  outer loop
   vertex -0.1095250015258789 0.001985278367996216 0.01571509647369385
   vertex -0.1095250015258789 0.003939247846603394 0.015342357635498047
   vertex -0.1095250015258789 0.0 0.01584000015258789
  endloop
 endfacet
 facet normal -1.0 0.0 -0.0
  outer loop
   vertex -0.1095250015258789 0.0 0.01584000015258789
   vertex -0.1095250015258789 0.003939247846603394 0.015342357635498047
   vertex -0.1095250015258789 -0.005831092834472656 0.014727659225463867
  endloop
 endfacet
 facet normal -1.0 -0.0 -0.0
  outer loop
   vertex -0.1095250015258789 0.005831092834472656 0.014727659225463867
   vertex -0.1095250015258789 0.0076309781074523925 0.013880698204040528
   vertex -0.1095250015258789 0.003939247846603394 0.015342357635498047
  endloop
 endfacet
 facet normal -1.0 0.0 -0.0
  outer loop
   vertex -0.1095250015258789 0.003939247846603394 0.015342357635498047
   vertex -0.1095250015258789 0.0076309781074523925 0.013880698204040528
   vertex -0.1095250015258789 -0.005831092834472656 0.014727659225463867
  endloop
 endfacet
 facet normal -1.0 0.0 0.0
  outer loop
   vertex -0.1095250015258789 -0.015559430122375489 -0.0029681200981140137
   vertex -0.1095250015258789 -0.013374154090881349 -0.008487496376037598
   vertex -0.1095250015258789 -0.015064735412597657 -0.004894829273223877
  endloop
 endfacet
 facet normal -1.0 0.0 0.0
  outer loop
   vertex -0.1095250015258789 -0.015064735412597657 -0.004894829273223877
   vertex -0.1095250015258789 -0.013374154090881349 -0.008487496376037598
   vertex -0.1095250015258789 -0.014332460403442384 -0.006744343757629395
  endloop
 endfacet
 facet normal -1.0 0.0 0.0
  outer loop
   vertex -0.1095250015258789 -0.015808743476867677 0.000994601845741272
   vertex -0.1095250015258789 -0.013374154090881349 -0.008487496376037598
   vertex -0.1095250015258789 -0.015559430122375489 -0.0029681200981140137
  endloop
 endfacet
 facet normal -1.0 0.0 -0.0
  outer loop
   vertex -0.1095250015258789 -0.013374154090881349 0.008487496376037598
   vertex -0.1095250015258789 -0.013374154090881349 -0.008487496376037598
   vertex -0.1095250015258789 -0.015808743476867677 0.000994601845741272
  endloop
 endfacet
 facet normal -1.0 -0.0 -0.0
  outer loop
   vertex -0.1095250015258789 0.009310518264770508 0.012814828872680664
   vertex -0.1095250015258789 0.010843226432800293 0.011546862602233888
   vertex -0.1095250015258789 0.0076309781074523925 0.013880698204040528
  endloop
 endfacet
 facet normal -1.0 0.0 0.0
  outer loop
   vertex -0.1095250015258789 -0.012204929351806641 -0.010096796035766601
   vertex -0.1095250015258789 -0.009310518264770508 -0.012814828872680664
   vertex -0.1095250015258789 -0.010843226432800293 -0.011546862602233888
  endloop
 endfacet
 facet normal -1.0 -0.0 -0.0
  outer loop
   vertex -0.1095250015258789 0.012204929351806641 0.010096796035766601
   vertex -0.1095250015258789 0.013374154090881349 0.008487496376037598
   vertex -0.1095250015258789 0.010843226432800293 0.011546862602233888
  endloop
 endfacet
 facet normal -1.0 0.0 -0.0
  outer loop
   vertex -0.1095250015258789 -0.010843226432800293 0.011546862602233888
   vertex -0.1095250015258789 0.013374154090881349 0.008487496376037598
   vertex -0.1095250015258789 -0.013374154090881349 0.008487496376037598
  endloop
 endfacet
 facet normal -1.0 0.0 -0.0
  outer loop
   vertex -0.1095250015258789 -0.005831092834472656 0.014727659225463867
   vertex -0.1095250015258789 0.013374154090881349 0.008487496376037598
   vertex -0.1095250015258789 -0.010843226432800293 0.011546862602233888
  endloop
 endfacet
 facet normal -1.0 -0.0 -0.0
  outer loop
   vertex -0.1095250015258789 0.010843226432800293 0.011546862602233888
   vertex -0.1095250015258789 0.013374154090881349 0.008487496376037598
   vertex -0.1095250015258789 0.0076309781074523925 0.013880698204040528
  endloop
 endfacet
 facet normal -1.0 -0.0 -0.0
  outer loop
   vertex -0.1095250015258789 0.0076309781074523925 0.013880698204040528
   vertex -0.1095250015258789 0.013374154090881349 0.008487496376037598
   vertex -0.1095250015258789 -0.005831092834472656 0.014727659225463867
  endloop
 endfacet
 facet normal -1.0 0.0 0.0
  outer loop
   vertex -0.1095250015258789 -0.012204929351806641 -0.010096796035766601
   vertex -0.1095250015258789 -0.0076309781074523925 -0.013880698204040528
   vertex -0.1095250015258789 -0.009310518264770508 -0.012814828872680664
  endloop
 endfacet
 facet normal -1.0 0.0 0.0
  outer loop
   vertex -0.1095250015258789 -0.013374154090881349 -0.008487496376037598
   vertex -0.1095250015258789 -0.0076309781074523925 -0.013880698204040528
   vertex -0.1095250015258789 -0.012204929351806641 -0.010096796035766601
  endloop
 endfacet
 facet normal -1.0 -0.0 -0.0
  outer loop
   vertex -0.1095250015258789 0.013374154090881349 0.008487496376037598
   vertex -0.1095250015258789 0.014332460403442384 0.006744343757629395
   vertex -0.1095250015258789 -0.013374154090881349 0.008487496376037598
  endloop
 endfacet
 facet normal -1.0 0.0 0.0
  outer loop
   vertex -0.1095250015258789 -0.0076309781074523925 -0.013880698204040528
   vertex -0.1095250015258789 -0.003939247846603394 -0.015342357635498047
   vertex -0.1095250015258789 -0.005831092834472656 -0.014727659225463867
  endloop
 endfacet
 facet normal -1.0 -0.0 -0.0
  outer loop
   vertex -0.1095250015258789 0.014332460403442384 0.006744343757629395
   vertex -0.1095250015258789 0.015559430122375489 0.0029681200981140137
   vertex -0.1095250015258789 -0.013374154090881349 0.008487496376037598
  endloop
 endfacet
 facet normal -1.0 -0.0 -0.0
  outer loop
   vertex -0.1095250015258789 0.015064735412597657 0.004894829273223877
   vertex -0.1095250015258789 0.015559430122375489 0.0029681200981140137
   vertex -0.1095250015258789 0.014332460403442384 0.006744343757629395
  endloop
 endfacet
 facet normal -1.0 -0.0 0.0
  outer loop
   vertex -0.1095250015258789 0.015808743476867677 -0.000994601845741272
   vertex -0.1095250015258789 0.015559430122375489 -0.0029681200981140137
   vertex -0.1095250015258789 0.015808743476867677 0.000994601845741272
  endloop
 endfacet
 facet normal -1.0 -0.0 0.0
  outer loop
   vertex -0.1095250015258789 0.015808743476867677 0.000994601845741272
   vertex -0.1095250015258789 0.015559430122375489 -0.0029681200981140137
   vertex -0.1095250015258789 0.015559430122375489 0.0029681200981140137
  endloop
 endfacet
 facet normal -1.0 -0.0 -0.0
  outer loop
   vertex -0.1095250015258789 0.015559430122375489 0.0029681200981140137
   vertex -0.1095250015258789 0.015559430122375489 -0.0029681200981140137
   vertex -0.1095250015258789 -0.013374154090881349 0.008487496376037598
  endloop
 endfacet
 facet normal -1.0 0.0 0.0
  outer loop
   vertex -0.1095250015258789 2.0000000072549875e-18 -0.01584000015258789
   vertex -0.1095250015258789 0.003939247846603394 -0.015342357635498047
   vertex -0.1095250015258789 0.001985278367996216 -0.01571509647369385
  endloop
 endfacet
 facet normal -1.0 0.0 0.0
  outer loop
   vertex -0.1095250015258789 -0.003939247846603394 -0.015342357635498047
   vertex -0.1095250015258789 0.003939247846603394 -0.015342357635498047
   vertex -0.1095250015258789 -0.001985278367996216 -0.01571509647369385
  endloop
 endfacet
 facet normal -1.0 0.0 0.0
  outer loop
   vertex -0.1095250015258789 -0.001985278367996216 -0.01571509647369385
   vertex -0.1095250015258789 0.003939247846603394 -0.015342357635498047
   vertex -0.1095250015258789 2.0000000072549875e-18 -0.01584000015258789
  endloop
 endfacet
 facet normal -1.0 0.0 0.0
  outer loop
   vertex -0.1095250015258789 -0.003939247846603394 -0.015342357635498047
   vertex -0.1095250015258789 0.005831092834472656 -0.014727659225463867
   vertex -0.1095250015258789 0.003939247846603394 -0.015342357635498047
  endloop
 endfacet
 facet normal -1.0 -0.0 0.0
  outer loop
   vertex -0.1095250015258789 0.014332460403442384 -0.006744343757629395
   vertex -0.1095250015258789 0.013374154090881349 -0.008487496376037598
   vertex -0.1095250015258789 0.015064735412597657 -0.004894829273223877
  endloop
 endfacet
 facet normal -1.0 -0.0 0.0
  outer loop
   vertex -0.1095250015258789 0.015064735412597657 -0.004894829273223877
   vertex -0.1095250015258789 0.013374154090881349 -0.008487496376037598
   vertex -0.1095250015258789 0.015559430122375489 -0.0029681200981140137
  endloop
 endfacet
 facet normal -1.0 -0.0 0.0
  outer loop
   vertex -0.1095250015258789 0.015559430122375489 -0.0029681200981140137
   vertex -0.1095250015258789 0.013374154090881349 -0.008487496376037598
   vertex -0.1095250015258789 -0.013374154090881349 0.008487496376037598
  endloop
 endfacet
 facet normal -1.0 0.0 0.0
  outer loop
   vertex -0.1095250015258789 -0.013374154090881349 0.008487496376037598
   vertex -0.1095250015258789 0.013374154090881349 -0.008487496376037598
   vertex -0.1095250015258789 -0.013374154090881349 -0.008487496376037598
  endloop
 endfacet
 facet normal -1.0 0.0 0.0
  outer loop
   vertex -0.1095250015258789 0.005831092834472656 -0.014727659225463867
   vertex -0.1095250015258789 0.009310518264770508 -0.012814828872680664
   vertex -0.1095250015258789 0.0076309781074523925 -0.013880698204040528
  endloop
 endfacet
 facet normal -1.0 0.0 0.0
  outer loop
   vertex -0.1095250015258789 -0.013374154090881349 -0.008487496376037598
   vertex -0.1095250015258789 0.009310518264770508 -0.012814828872680664
   vertex -0.1095250015258789 -0.0076309781074523925 -0.013880698204040528
  endloop
 endfacet
 facet normal -1.0 0.0 0.0
  outer loop
   vertex -0.1095250015258789 -0.0076309781074523925 -0.013880698204040528
   vertex -0.1095250015258789 0.009310518264770508 -0.012814828872680664
   vertex -0.1095250015258789 -0.003939247846603394 -0.015342357635498047
  endloop
 endfacet
 facet normal -1.0 0.0 0.0
  outer loop
   vertex -0.1095250015258789 -0.003939247846603394 -0.015342357635498047
   vertex -0.1095250015258789 0.009310518264770508 -0.012814828872680664
   vertex -0.1095250015258789 0.005831092834472656 -0.014727659225463867
  endloop
 endfacet
 facet normal -1.0 -0.0 0.0
  outer loop
   vertex -0.1095250015258789 0.013374154090881349 -0.008487496376037598
   vertex -0.1095250015258789 0.009310518264770508 -0.012814828872680664
   vertex -0.1095250015258789 -0.013374154090881349 -0.008487496376037598
  endloop
 endfacet
 facet normal -1.0 -0.0 0.0
  outer loop
   vertex -0.1095250015258789 0.012204929351806641 -0.010096796035766601
   vertex -0.1095250015258789 0.010843226432800293 -0.011546862602233888
   vertex -0.1095250015258789 0.013374154090881349 -0.008487496376037598
  endloop
 endfacet
 facet normal -1.0 0.0 0.0
  outer loop
   vertex -0.1095250015258789 0.013374154090881349 -0.008487496376037598
   vertex -0.1095250015258789 0.010843226432800293 -0.011546862602233888
   vertex -0.1095250015258789 0.009310518264770508 -0.012814828872680664
  endloop
 endfacet
endsolid MeshRefinement001
