solid patch_3_0
 facet normal -1.0 -0.0 -0.0
  outer loop
   vertex -0.30752499389648436 0.023760000228881837 0.023760000228881837
   vertex -0.30752499389648436 0.023760000228881837 -0.023760000228881837
   vertex -0.30752499389648436 -0.023760000228881837 0.023760000228881837
  endloop
 endfacet
 facet normal -1.0 0.0 0.0
  outer loop
   vertex -0.30752499389648436 -0.023760000228881837 0.023760000228881837
   vertex -0.30752499389648436 0.023760000228881837 -0.023760000228881837
   vertex -0.30752499389648436 -0.023760000228881837 -0.023760000228881837
  endloop
 endfacet
endsolid patch_3_0
