solid patch_2_0
 facet normal -0.0 -1.0 0.0
  outer loop
   vertex 0.13247500610351562 -0.023760000228881837 0.023760000228881837
   vertex -0.30752499389648436 -0.023760000228881837 0.023760000228881837
   vertex -0.30752499389648436 -0.023760000228881837 -0.023760000228881837
  endloop
 endfacet
 facet normal 0.0 -1.0 0.0
  outer loop
   vertex 0.13247500610351562 -0.023760000228881837 -0.023760000228881837
   vertex 0.13247500610351562 -0.023760000228881837 0.023760000228881837
   vertex -0.30752499389648436 -0.023760000228881837 -0.023760000228881837
  endloop
 endfacet
 facet normal 0.0 0.0 -1.0
  outer loop
   vertex -0.30752499389648436 0.023760000228881837 -0.023760000228881837
   vertex 0.13247500610351562 0.023760000228881837 -0.023760000228881837
   vertex -0.30752499389648436 -0.023760000228881837 -0.023760000228881837
  endloop
 endfacet
 facet normal 0.0 0.0 -1.0
  outer loop
   vertex -0.30752499389648436 -0.023760000228881837 -0.023760000228881837
   vertex 0.13247500610351562 0.023760000228881837 -0.023760000228881837
   vertex 0.13247500610351562 -0.023760000228881837 -0.023760000228881837
  endloop
 endfacet
 facet normal -0.0 1.0 0.0
  outer loop
   vertex -0.30752499389648436 0.023760000228881837 0.023760000228881837
   vertex 0.13247500610351562 0.023760000228881837 0.023760000228881837
   vertex -0.30752499389648436 0.023760000228881837 -0.023760000228881837
  endloop
 endfacet
 facet normal 0.0 1.0 0.0
  outer loop
   vertex 0.13247500610351562 0.023760000228881837 0.023760000228881837
   vertex 0.13247500610351562 0.023760000228881837 -0.023760000228881837
   vertex -0.30752499389648436 0.023760000228881837 -0.023760000228881837
  endloop
 endfacet
 facet normal 0.0 0.0 1.0
  outer loop
   vertex 0.13247500610351562 0.023760000228881837 0.023760000228881837
   vertex -0.30752499389648436 0.023760000228881837 0.023760000228881837
   vertex 0.13247500610351562 -0.023760000228881837 0.023760000228881837
  endloop
 endfacet
 facet normal 0.0 0.0 1.0
  outer loop
   vertex 0.13247500610351562 -0.023760000228881837 0.023760000228881837
   vertex -0.30752499389648436 0.023760000228881837 0.023760000228881837
   vertex -0.30752499389648436 -0.023760000228881837 0.023760000228881837
  endloop
 endfacet
endsolid patch_2_0
